<svg width="130" height="60" viewBox="0 0 130 60" fill="none" xmlns="http://www.w3.org/2000/svg">
<path fill-rule="evenodd" clip-rule="evenodd" d="M43.7249 0H54.0737V19.8702C50.6737 22.9361 47.2241 25.9438 43.7249 28.8932V0ZM40.3907 31.6391V8.4963H30.0395V39.7404L30.237 39.5943C33.6897 37.0519 37.0588 34.3706 40.3907 31.6391ZM26.7192 17.1721H16.3565V48.7849C20.0183 46.987 23.399 44.6409 26.7076 42.2134L26.7192 17.1721ZM76.0934 2.22881C70.3622 7.91216 64.5147 13.4686 58.5511 18.8982C49.4523 27.2174 40.1351 35.3641 30.2417 42.673C29.8067 42.9946 29.3719 43.3175 28.9366 43.6407C24.2677 47.1078 19.5509 50.6104 14.1887 52.8331C10.7034 54.2695 5.57315 55.3708 3.43554 51.2531C2.63626 49.7161 2.65485 47.8369 3.11955 46.1587C4.55189 40.9625 8.60607 36.9465 12.3381 33.2495L12.3385 33.2492C12.8017 32.7903 13.26 32.3363 13.7077 31.8856C13.7077 31.8856 7.05787 36.2403 3.41463 41.2653C0.663618 45.0598 -1.18123 50.2021 0.884349 54.4323C5.21766 63.3093 17.2812 59.589 24.0658 56.7497C25.4413 56.1728 27.9623 54.7675 30.0395 53.525V55.3013H40.3907V46.2281C41.4889 45.3806 42.6003 44.5076 43.7249 43.6091V55.3013H54.0737V35.0146C64.3296 26.2167 72.9335 18.1202 72.9335 18.1202L75.5637 21.6465L76.8806 1.44399C76.8819 1.44052 76.8821 1.43796 76.8811 1.4364L76.8806 1.44399C76.8533 1.51781 76.3326 2.00489 76.1523 2.17352C76.1208 2.20293 76.0997 2.22266 76.0934 2.22881ZM126.794 28.3176C126.794 27.5344 127.248 27.1429 128.155 27.1429C129.063 27.1429 129.516 27.5344 129.516 28.3176C129.516 28.6907 129.401 28.9824 129.172 29.1927C128.948 29.3977 128.609 29.5002 128.155 29.5002C127.248 29.5002 126.794 29.106 126.794 28.3176ZM129.401 39.4103H126.901V30.596H129.401V39.4103ZM92.4729 37.8966C93.5989 36.8874 94.1619 35.4341 94.1619 33.5367C94.1619 31.755 93.6207 30.3674 92.5385 29.374C91.4562 28.3806 89.9366 27.8839 87.9798 27.8839H84.2164V39.4103H87.6108C89.7317 39.4103 91.3523 38.9057 92.4729 37.8966ZM88.111 29.8865C90.3848 29.8865 91.5218 31.1243 91.5218 33.5998C91.5218 36.1279 90.2974 37.392 87.8486 37.392H86.7581V29.8865H88.111ZM98.9993 32.6301C99.3 32.3042 99.7154 32.1413 100.246 32.1413C100.776 32.1413 101.197 32.3042 101.508 32.6301C101.82 32.9507 101.981 33.408 101.992 34.0019H98.4828C98.5265 33.408 98.6987 32.9507 98.9993 32.6301ZM97.1381 38.3932C97.969 39.1764 99.1223 39.568 100.598 39.568C101.314 39.568 101.921 39.5154 102.418 39.4103C102.916 39.3104 103.383 39.1554 103.82 38.9451V37.0845C103.285 37.3263 102.771 37.5024 102.279 37.6127C101.787 37.7231 101.265 37.7783 100.713 37.7783C100.002 37.7783 99.4503 37.5865 99.0567 37.2028C98.6632 36.8191 98.4527 36.2856 98.4254 35.6023H104.337V34.4355C104.337 33.1846 103.976 32.2044 103.255 31.4948C102.533 30.7852 101.525 30.4305 100.229 30.4305C98.8736 30.4305 97.8105 30.8352 97.0398 31.6446C96.2745 32.4488 95.8919 33.5893 95.8919 35.0662C95.8919 36.5011 96.3073 37.6101 97.1381 38.3932ZM114.832 39.4103H112.331V34.2621C112.331 33.6261 112.213 33.1504 111.978 32.8351C111.743 32.5145 111.369 32.3541 110.855 32.3541C110.156 32.3541 109.65 32.5802 109.338 33.0322C109.027 33.4789 108.871 34.2226 108.871 35.2633V39.4103H106.37V30.596H108.281L108.617 31.7234H108.756C109.035 31.2977 109.418 30.9771 109.904 30.7616C110.396 30.5408 110.954 30.4305 111.577 30.4305C112.643 30.4305 113.452 30.709 114.004 31.2662C114.556 31.818 114.832 32.6169 114.832 33.6629V39.4103ZM125.384 31.818V30.596H122.186C122.088 30.575 121.861 30.5435 121.506 30.5014C121.156 30.4541 120.853 30.4305 120.596 30.4305C119.388 30.4305 118.458 30.6933 117.808 31.2189C117.158 31.7445 116.832 32.4882 116.832 33.45C116.832 34.0492 116.972 34.5695 117.25 35.011C117.535 35.4525 117.917 35.7732 118.398 35.9729C118.016 36.1884 117.723 36.4091 117.521 36.6351C117.319 36.8559 117.218 37.1344 117.218 37.4708C117.218 37.7389 117.313 37.9938 117.505 38.2356C117.696 38.4721 117.92 38.6429 118.177 38.748C117.51 38.9005 117.004 39.1554 116.66 39.5128C116.316 39.8702 116.144 40.3143 116.144 40.8452C116.144 41.6178 116.48 42.217 117.152 42.6427C117.83 43.0737 118.808 43.2892 120.087 43.2892C121.76 43.2892 123.042 43.0054 123.933 42.4377C124.829 41.8701 125.277 41.0712 125.277 40.041C125.277 39.2368 125.012 38.6271 124.482 38.2119C123.957 37.7967 123.192 37.5891 122.186 37.5891H120.628C119.71 37.5891 119.251 37.4156 119.251 37.0687C119.251 36.8375 119.379 36.6272 119.636 36.438L120.005 36.4775L120.456 36.5011C121.675 36.5011 122.626 36.2383 123.31 35.7127C123.998 35.1819 124.343 34.4434 124.343 33.4973C124.343 33.0085 124.211 32.567 123.949 32.1728L125.384 31.818ZM118.8 41.4365C118.472 41.2472 118.308 40.9871 118.308 40.6559C118.308 40.3143 118.461 40.0384 118.767 39.8281C119.079 39.6231 119.464 39.5207 119.923 39.5207H121.219C121.847 39.5207 122.312 39.5837 122.613 39.7099C122.913 39.836 123.064 40.0646 123.064 40.3958C123.064 40.8057 122.809 41.129 122.301 41.3655C121.793 41.602 121.09 41.7203 120.194 41.7203C119.598 41.7203 119.133 41.6257 118.8 41.4365ZM119.554 34.6168C119.33 34.3383 119.218 33.9598 119.218 33.4816C119.218 32.4198 119.677 31.889 120.596 31.889C121.503 31.889 121.957 32.4198 121.957 33.4816C121.957 33.9598 121.847 34.3383 121.629 34.6168C121.41 34.8954 121.066 35.0347 120.596 35.0347C120.131 35.0347 119.784 34.8954 119.554 34.6168ZM67.0968 55.5566H69.5975V50.9997H73.6642V49.005H69.5975V46.0328H73.9676V44.0303H67.0968V55.5566ZM76.0092 44.4639C76.0092 43.6808 76.4628 43.2892 77.3702 43.2892C78.2776 43.2892 78.7312 43.6808 78.7312 44.4639C78.7312 44.8371 78.6165 45.1288 78.3869 45.339C78.1628 45.544 77.8239 45.6465 77.3702 45.6465C76.4628 45.6465 76.0092 45.2523 76.0092 44.4639ZM78.6165 55.5566H76.1157V46.7424H78.6165V55.5566ZM87.2091 55.5566H89.7098V49.8092C89.7098 48.7633 89.4338 47.9644 88.8817 47.4125C88.3296 46.8554 87.5206 46.5768 86.4548 46.5768C85.8316 46.5768 85.2741 46.6872 84.7822 46.9079C84.2957 47.1234 83.9131 47.444 83.6343 47.8698H83.4949L83.1587 46.7424H81.2484V55.5566H83.7491V51.4096C83.7491 50.369 83.9049 49.6253 84.2164 49.1785C84.528 48.7265 85.0336 48.5005 85.7332 48.5005C86.2471 48.5005 86.6215 48.6608 86.8565 48.9814C87.0916 49.2968 87.2091 49.7724 87.2091 50.4084V55.5566ZM98.1056 55.5566L97.6219 54.3582H97.5563C97.1354 54.8681 96.7009 55.2229 96.2526 55.4226C95.8099 55.6171 95.2305 55.7143 94.5144 55.7143C93.6344 55.7143 92.9402 55.4725 92.4319 54.989C91.929 54.5054 91.6776 53.8169 91.6776 52.9234C91.6776 51.9878 92.0165 51.2993 92.6943 50.8578C93.3775 50.411 94.4051 50.164 95.7771 50.1167L97.3677 50.0694V49.6831C97.3677 48.7896 96.8922 48.3428 95.9411 48.3428C95.2086 48.3428 94.3477 48.5557 93.3584 48.9814L92.5303 47.3573C93.5852 46.8264 94.755 46.561 96.0395 46.561C97.2693 46.561 98.2122 46.8186 98.8681 47.3336C99.5241 47.8487 99.852 48.6319 99.852 49.6831V55.5566H98.1056ZM97.3677 51.4727L96.4002 51.5043C95.6732 51.5253 95.1321 51.6514 94.7768 51.8827C94.4215 52.1139 94.2439 52.4661 94.2439 52.9391C94.2439 53.6172 94.6484 53.9562 95.4573 53.9562C96.0367 53.9562 96.4986 53.7959 96.843 53.4752C97.1928 53.1546 97.3677 52.7289 97.3677 52.198V51.4727ZM108.395 55.5566H110.896V49.8092C110.896 48.7633 110.62 47.9644 110.068 47.4125C109.516 46.8554 108.707 46.5768 107.641 46.5768C107.018 46.5768 106.46 46.6872 105.969 46.9079C105.482 47.1234 105.099 47.444 104.821 47.8698H104.681L104.345 46.7424H102.435V55.5566H104.935V51.4096C104.935 50.369 105.091 49.6253 105.403 49.1785C105.714 48.7265 106.22 48.5005 106.92 48.5005C107.433 48.5005 107.808 48.6608 108.043 48.9814C108.278 49.2968 108.395 49.7724 108.395 50.4084V55.5566ZM117.193 55.7143C114.34 55.7143 112.913 54.2085 112.913 51.1968C112.913 49.6988 113.301 48.5557 114.077 47.7673C114.854 46.9736 115.966 46.5768 117.414 46.5768C118.475 46.5768 119.426 46.7765 120.268 47.176L119.53 49.0366C119.136 48.8842 118.77 48.7606 118.431 48.666C118.092 48.5662 117.753 48.5162 117.414 48.5162C116.114 48.5162 115.463 49.4045 115.463 51.181C115.463 52.905 116.114 53.767 117.414 53.767C117.895 53.767 118.341 53.7065 118.751 53.5856C119.161 53.4595 119.571 53.265 119.981 53.0022V55.0599C119.576 55.3069 119.166 55.4778 118.751 55.5724C118.341 55.667 117.822 55.7143 117.193 55.7143ZM124.662 48.7764C124.963 48.4505 125.378 48.2876 125.909 48.2876C126.439 48.2876 126.86 48.4505 127.171 48.7764C127.483 49.097 127.644 49.5543 127.655 50.1482H124.146C124.19 49.5543 124.362 49.097 124.662 48.7764ZM122.801 54.5396C123.632 55.3227 124.785 55.7143 126.261 55.7143C126.977 55.7143 127.584 55.6617 128.081 55.5566C128.579 55.4567 129.046 55.3017 129.483 55.0915V53.2308C128.948 53.4726 128.434 53.6487 127.942 53.7591C127.45 53.8694 126.928 53.9246 126.376 53.9246C125.665 53.9246 125.113 53.7328 124.72 53.3491C124.326 52.9654 124.116 52.4319 124.088 51.7487H130V50.5818C130 49.3309 129.639 48.3507 128.918 47.6411C128.196 46.9316 127.188 46.5768 125.892 46.5768C124.537 46.5768 123.474 46.9815 122.703 47.7909C121.938 48.5951 121.555 49.7356 121.555 51.2126C121.555 52.6474 121.97 53.7564 122.801 54.5396Z" fill="url(#paint0_linear_4_631)"/>
<defs>
<linearGradient id="paint0_linear_4_631" x1="139.662" y1="6.86381" x2="96.8341" y2="101.648" gradientUnits="userSpaceOnUse">
<stop stop-color="#35D5A5"/>
<stop offset="0.320833" stop-color="#00C7C5"/>
<stop offset="0.5776" stop-color="#2D9BE0"/>
<stop offset="0.7222" stop-color="#5277F7"/>
<stop offset="0.8013" stop-color="#5B75F6"/>
<stop offset="0.9292" stop-color="#7370F4"/>
<stop offset="1" stop-color="#836DF3"/>
</linearGradient>
</defs>
</svg>
