<svg>
  <symbol xmlns="http://www.w3.org/2000/svg" viewBox="0 0 60 60" id="facebook">
    <path d="M60 30C60 13.4297 46.5703 0 30 0C13.4297 0 0 13.4297 0 30C0 46.5703 13.4297 60 30 60C30.1758 60 30.3516 60 30.5273 59.9883V36.6445H24.082V29.1328H30.5273V23.6016C30.5273 17.1914 34.4414 13.6992 40.1602 13.6992C42.9023 13.6992 45.2578 13.8984 45.9375 13.9922V20.6953H42C38.8945 20.6953 38.2852 22.1719 38.2852 24.3398V29.1211H45.7266L44.7539 36.6328H38.2852V58.8398C50.8242 55.2422 60 43.6992 60 30Z"></path>
  </symbol>
  <symbol xmlns="http://www.w3.org/2000/svg" viewBox="0 0 60 60" id="instagram">
    <path d="M35.7422 30C35.7422 33.1714 33.1714 35.7422 30 35.7422C26.8286 35.7422 24.2578 33.1714 24.2578 30C24.2578 26.8286 26.8286 24.2578 30 24.2578C33.1714 24.2578 35.7422 26.8286 35.7422 30Z"></path>
    <path d="M43.429 19.8404C43.1529 19.0924 42.7126 18.4154 42.1404 17.8596C41.5846 17.2874 40.9081 16.8471 40.1596 16.571C39.5526 16.3353 38.6407 16.0547 36.9612 15.9782C35.1443 15.8954 34.5996 15.8775 30 15.8775C25.3999 15.8775 24.8552 15.8949 23.0388 15.9778C21.3593 16.0547 20.4469 16.3353 19.8404 16.571C19.0919 16.8471 18.4149 17.2874 17.8596 17.8596C17.2874 18.4154 16.8471 19.0919 16.5706 19.8404C16.3348 20.4474 16.0542 21.3597 15.9778 23.0392C15.8949 24.8557 15.8771 25.4004 15.8771 30.0005C15.8771 34.6001 15.8949 35.1448 15.9778 36.9617C16.0542 38.6412 16.3348 39.5531 16.5706 40.1601C16.8471 40.9085 17.287 41.5851 17.8592 42.1408C18.4149 42.713 19.0915 43.1534 19.8399 43.4294C20.4469 43.6656 21.3593 43.9462 23.0388 44.0227C24.8552 44.1055 25.3995 44.1229 29.9995 44.1229C34.6001 44.1229 35.1448 44.1055 36.9608 44.0227C38.6403 43.9462 39.5526 43.6656 40.1596 43.4294C41.662 42.8499 42.8494 41.6624 43.429 40.1601C43.6647 39.5531 43.9453 38.6412 44.0222 36.9617C44.1051 35.1448 44.1225 34.6001 44.1225 30.0005C44.1225 25.4004 44.1051 24.8557 44.0222 23.0392C43.9458 21.3597 43.6652 20.4474 43.429 19.8404ZM30 38.8458C25.1143 38.8458 21.1537 34.8857 21.1537 30C21.1537 25.1143 25.1143 21.1542 30 21.1542C34.8853 21.1542 38.8458 25.1143 38.8458 30C38.8458 34.8857 34.8853 38.8458 30 38.8458ZM39.1956 22.8717C38.0539 22.8717 37.1283 21.9461 37.1283 20.8044C37.1283 19.6628 38.0539 18.7372 39.1956 18.7372C40.3372 18.7372 41.2628 19.6628 41.2628 20.8044C41.2624 21.9461 40.3372 22.8717 39.1956 22.8717Z"></path>
    <path d="M30 0C13.434 0 0 13.434 0 30C0 46.566 13.434 60 30 60C46.566 60 60 46.566 60 30C60 13.434 46.566 0 30 0ZM47.1227 37.1022C47.0393 38.936 46.7477 40.188 46.322 41.2839C45.4271 43.5979 43.5979 45.4271 41.2839 46.322C40.1884 46.7477 38.936 47.0389 37.1027 47.1227C35.2657 47.2064 34.6788 47.2266 30.0005 47.2266C25.3217 47.2266 24.7353 47.2064 22.8978 47.1227C21.0645 47.0389 19.812 46.7477 18.7166 46.322C17.5667 45.8894 16.5257 45.2115 15.6651 44.3349C14.789 43.4747 14.111 42.4333 13.6784 41.2839C13.2527 40.1884 12.9611 38.936 12.8778 37.1027C12.7931 35.2652 12.7734 34.6783 12.7734 30C12.7734 25.3217 12.7931 24.7348 12.8773 22.8978C12.9607 21.064 13.2518 19.812 13.6775 18.7161C14.1101 17.5667 14.7885 16.5253 15.6651 15.6651C16.5253 14.7885 17.5667 14.1106 18.7161 13.678C19.812 13.2523 21.064 12.9611 22.8978 12.8773C24.7348 12.7936 25.3217 12.7734 30 12.7734C34.6783 12.7734 35.2652 12.7936 37.1022 12.8778C38.936 12.9611 40.188 13.2523 41.2839 13.6775C42.4333 14.1101 43.4747 14.7885 44.3353 15.6651C45.2115 16.5257 45.8899 17.5667 46.322 18.7161C46.7482 19.812 47.0393 21.064 47.1231 22.8978C47.2069 24.7348 47.2266 25.3217 47.2266 30C47.2266 34.6783 47.2069 35.2652 47.1227 37.1022Z"></path>
  </symbol>
  <symbol xmlns="http://www.w3.org/2000/svg" viewBox="0 0 60 60" id="twitter">
    <path d="M30 0C13.434 0 0 13.434 0 30C0 46.566 13.434 60 30 60C46.566 60 60 46.566 60 30C60 13.434 46.566 0 30 0ZM43.6977 23.3908C43.7109 23.6861 43.7173 23.9827 43.7173 24.2807C43.7173 33.3797 36.7914 43.8721 24.1255 43.8725H24.126H24.1255C20.2368 43.8725 16.6182 42.7327 13.5709 40.7794C14.1096 40.843 14.6581 40.8746 15.2133 40.8746C18.4396 40.8746 21.4087 39.7742 23.7657 37.9271C20.7513 37.8712 18.2098 35.8804 17.3328 33.1444C17.7525 33.2249 18.1842 33.2689 18.6269 33.2689C19.2554 33.2689 19.8642 33.1842 20.4428 33.0263C17.292 32.3955 14.9185 29.6109 14.9185 26.2766C14.9185 26.2454 14.9185 26.2175 14.9194 26.1887C15.8473 26.7046 16.9084 27.0149 18.0382 27.0497C16.1893 25.816 14.9739 23.7071 14.9739 21.3181C14.9739 20.0565 15.3149 18.8745 15.9064 17.8569C19.3021 22.0235 24.3768 24.7636 30.0998 25.0516C29.9817 24.5471 29.9208 24.0216 29.9208 23.4814C29.9208 19.6802 33.0048 16.5962 36.8074 16.5962C38.7881 16.5962 40.5771 17.4335 41.8336 18.772C43.4024 18.4625 44.8755 17.8894 46.2062 17.1007C45.6912 18.7079 44.5999 20.0565 43.1781 20.9093C44.5711 20.7426 45.8986 20.3732 47.1323 19.8248C46.2108 21.2059 45.0421 22.419 43.6977 23.3908Z"></path>
  </symbol>
  <symbol xmlns="http://www.w3.org/2000/svg" viewBox="0 0 60 60" id="vk">
    <path d="M30 0C13.432 0 0 13.4314 0 30C0 46.5686 13.432 60 30 60C46.568 60 60 46.5686 60 30C60 13.4314 46.568 0 30 0ZM45.2176 33.2446C46.6159 34.6103 48.0951 35.8957 49.3504 37.4026C49.9065 38.0692 50.4307 38.7585 50.8297 39.5337C51.3993 40.6392 50.8849 41.8515 49.8954 41.9171L43.7494 41.9159C42.162 42.0473 40.8988 41.4071 39.8339 40.3218C38.9837 39.457 38.195 38.5332 37.3762 37.6389C37.0416 37.2718 36.6893 36.9262 36.2695 36.6543C35.4316 36.1093 34.7036 36.2762 34.2236 37.1515C33.7344 38.0421 33.6227 39.0292 33.5761 40.0205C33.5092 41.4697 33.0721 41.8484 31.618 41.9165C28.5109 42.062 25.5628 41.5906 22.8227 40.0241C20.4055 38.6425 18.5346 36.6924 16.9043 34.4845C13.7297 30.1805 11.2984 25.4566 9.11386 20.597C8.6222 19.5026 8.98189 18.917 10.1893 18.8943C12.1952 18.8557 14.2011 18.8606 16.2071 18.8925C17.0234 18.9054 17.5636 19.3725 17.8772 20.1428C18.9612 22.8098 20.2901 25.3473 21.9554 27.7007C22.3992 28.3274 22.8522 28.9522 23.4973 29.3948C24.2093 29.8834 24.7519 29.7219 25.0877 28.9271C25.3025 28.4219 25.3952 27.8817 25.4418 27.3404C25.6014 25.486 25.6205 23.6323 25.3442 21.7854C25.1724 20.6296 24.5224 19.8832 23.3702 19.6647C22.7834 19.5536 22.8694 19.3363 23.1548 19.0011C23.6501 18.4217 24.1142 18.0632 25.0416 18.0632L31.9857 18.062C33.0801 18.2768 33.3256 18.7679 33.4742 19.8703L33.4803 27.5871C33.4674 28.0137 33.6945 29.2782 34.4606 29.5574C35.0744 29.76 35.4795 29.2677 35.8465 28.8792C37.5118 27.112 38.6983 25.0263 39.7608 22.8675C40.2298 21.9155 40.6343 20.9303 41.0271 19.9433C41.3193 19.2135 41.7735 18.8544 42.5972 18.8667L49.2841 18.8747C49.4811 18.8747 49.6812 18.8765 49.8764 18.9103C51.0034 19.103 51.3121 19.5879 50.9635 20.6873C50.4147 22.4145 49.3485 23.8533 48.3063 25.2958C47.1892 26.8401 45.9977 28.3304 44.8917 29.8815C43.8752 31.2994 43.9556 32.0133 45.2176 33.2446Z"></path>
  </symbol>
</svg>